<?xml version="1.0" encoding="utf-8"?>
<!-- Generator: Adobe Illustrator 19.0.0, SVG Export Plug-In . SVG Version: 6.00 Build 0)  -->
<svg version="1.1" id="Isolation_Mode" xmlns="http://www.w3.org/2000/svg" xmlns:xlink="http://www.w3.org/1999/xlink" x="0px"
	 y="0px" viewBox="0 0 116.1 123.6" style="enable-background:new 0 0 116.1 123.6;" xml:space="preserve">
<style type="text/css">
	.st0{fill:#50B648;}
	.st1{opacity:0.5;}
	.st2{clip-path:url(#SVGID_2_);fill:#50B648;}
	.st3{clip-path:url(#SVGID_4_);fill:#50B648;}
	.st4{clip-path:url(#SVGID_6_);fill:#50B648;}
</style>
<path class="st0" d="M38.4,44V31.8c0,0,0,0-0.1,0c-6.7,0-12.1,5.4-12.1,12.1c0,6.7,5.4,12.1,12.1,12.1c6.7,0,12.1-5.4,12.1-12.1
	c0-1.3-0.2-2.5-0.6-3.6L38.4,44z"/>
<g class="st1">
	<g>
		<defs>
			<rect id="SVGID_1_" x="38.4" y="31.8" width="11.5" height="12.2"/>
		</defs>
		<clipPath id="SVGID_2_">
			<use xlink:href="#SVGID_1_"  style="overflow:visible;"/>
		</clipPath>
		<path class="st2" d="M49.8,40.2c-1.5-4.9-6-8.4-11.5-8.4V44L49.8,40.2z"/>
	</g>
</g>
<path class="st0" d="M24.5,103.4L24.5,103.4C11,103.4,0,92.4,0,78.9V6.3h91.6c13.5,0,24.5,11,24.5,24.5v72.6L24.5,103.4z M8.1,14.4
	v64.5c0,9,7.3,16.4,16.4,16.4l83.5,0V30.7c0-9-7.3-16.4-16.4-16.4H8.1z"/>
<g class="st1">
	<g>
		<defs>
			<rect id="SVGID_3_" x="4.1" y="10.3" width="108" height="89"/>
		</defs>
		<clipPath id="SVGID_4_">
			<use xlink:href="#SVGID_3_"  style="overflow:visible;"/>
		</clipPath>
		<path class="st3" d="M91.6,20.8c5.5,0,10,4.5,10,10v58.1l-77.1,0c-5.5,0-10-4.5-10-10V20.8H91.6 M91.6,10.3H4.1v68.6
			c0,11.3,9.2,20.4,20.4,20.4l87.6,0V30.7C112.1,19.5,102.9,10.3,91.6,10.3"/>
	</g>
</g>
<path class="st0" d="M15.2,122.3c-1.8,1.8-4.6,1.8-6.4,0l-6.5-6.5l19.1-19.1c1.8-1.8,4.6-1.8,6.4,0l6.5,6.5L15.2,122.3z"/>
<path class="st0" d="M100.9,122.3c1.8,1.8,4.6,1.8,6.4,0l6.5-6.5L94.7,96.7c-1.8-1.8-4.6-1.8-6.4,0l-6.5,6.5L100.9,122.3z"/>
<rect x="16.7" y="112.3" class="st0" width="82.8" height="3.5"/>
<path class="st0" d="M50.9,8.8c-1.6,0-2.9-1.3-2.9-2.9V0h17.3c1.6,0,2.9,1.3,2.9,2.9v5.9H50.9z"/>
<rect x="62" y="43.9" class="st0" width="10.6" height="35.2"/>
<rect x="44.1" y="60.8" class="st0" width="10.6" height="18.3"/>
<rect x="79.8" y="32.8" class="st0" width="10.6" height="46.3"/>
<g class="st1">
	<g>
		<defs>
			<rect id="SVGID_5_" x="26.3" y="67.3" width="10.6" height="11.8"/>
		</defs>
		<clipPath id="SVGID_6_">
			<use xlink:href="#SVGID_5_"  style="overflow:visible;"/>
		</clipPath>
		<rect x="26.3" y="67.3" class="st4" width="10.6" height="11.8"/>
	</g>
</g>
</svg>
