<?xml version="1.0" encoding="utf-8"?>
<!-- Generator: Adobe Illustrator 19.0.1, SVG Export Plug-In . SVG Version: 6.00 Build 0)  -->
<svg version="1.1" id="Layer_1" xmlns="http://www.w3.org/2000/svg" xmlns:xlink="http://www.w3.org/1999/xlink" x="0px" y="0px"
	 viewBox="0 0 176 38.1" enable-background="new 0 0 176 38.1" xml:space="preserve">
<g id="XMLID_659_">
	<g id="XMLID_723_">
		<g id="XMLID_750_">
			<path id="XMLID_5_" fill="#231F20" d="M6.3,14.2l-1.7,5.6H0.9L7.2,0.1h4.6l6.4,19.6h-3.8l-1.8-5.6H6.3z M11.9,11.5l-1.5-4.8
				C10,5.5,9.7,4.1,9.4,3H9.3C9,4.1,8.7,5.5,8.4,6.7l-1.5,4.8H11.9z"/>
		</g>
		<g id="XMLID_748_">
			<path id="XMLID_6_" fill="#231F20" d="M24.1,19.8L17.8,0.1h3.9l2.7,8.9c0.8,2.5,1.4,4.8,1.9,7.1h0.1c0.5-2.3,1.3-4.7,2-7.1l2.9-9
				H35l-6.8,19.6H24.1z"/>
		</g>
		<g id="XMLID_745_">
			<path id="XMLID_7_" fill="#231F20" d="M39.9,14.2l-1.7,5.6h-3.7l6.3-19.6h4.6l6.4,19.6h-3.8l-1.8-5.6H39.9z M45.5,11.5L44,6.7
				c-0.4-1.2-0.7-2.5-1-3.7h-0.1c-0.3,1.1-0.6,2.5-0.9,3.7l-1.5,4.8H45.5z"/>
		</g>
		<g id="XMLID_743_">
			<path id="XMLID_8_" fill="#231F20" d="M58.5,0.1v19.6h-3.6V0.1H58.5z"/>
		</g>
		<g id="XMLID_741_">
			<path id="XMLID_9_" fill="#231F20" d="M63.1,0.1h3.6v16.6h8.1v3H63.1V0.1z"/>
		</g>
		<g id="XMLID_738_">
			<path id="XMLID_10_" fill="#231F20" d="M81.9,14.2l-1.7,5.6h-3.7l6.3-19.6h4.6l6.4,19.6h-3.8l-1.8-5.6H81.9z M87.5,11.5L86,6.7
				c-0.4-1.2-0.7-2.5-1-3.7h-0.1c-0.3,1.1-0.6,2.5-0.9,3.7l-1.5,4.8H87.5z"/>
		</g>
		<g id="XMLID_734_">
			<path id="XMLID_11_" fill="#231F20" d="M96.9,0.4c1.1-0.2,3.2-0.4,5.2-0.4c2.6,0,4.3,0.3,5.6,1.3c1.2,0.7,2,2,2,3.7
				c0,1.8-1.1,3.4-3.3,4.2v0.1c2.1,0.5,4,2.2,4,4.8c0,1.7-0.8,3.1-1.9,4c-1.4,1.2-3.7,1.8-7.3,1.8c-2,0-3.5-0.1-4.4-0.3V0.4z
				 M100.5,8.2h1.8c2.5,0,3.9-1.2,3.9-2.8c0-1.9-1.4-2.7-3.7-2.7c-1,0-1.7,0.1-2,0.1V8.2z M100.5,17.2c0.5,0.1,1.1,0.1,1.9,0.1
				c2.3,0,4.4-0.8,4.4-3.3c0-2.3-2-3.2-4.5-3.2h-1.8V17.2z"/>
		</g>
		<g id="XMLID_732_">
			<path id="XMLID_12_" fill="#231F20" d="M117.7,0.1v19.6h-3.6V0.1H117.7z"/>
		</g>
		<g id="XMLID_730_">
			<path id="XMLID_13_" fill="#231F20" d="M122.2,0.1h3.6v16.6h8.1v3h-11.6V0.1z"/>
		</g>
		<g id="XMLID_728_">
			<path id="XMLID_14_" fill="#231F20" d="M140.6,0.1v19.6H137V0.1H140.6z"/>
		</g>
		<g id="XMLID_726_">
			<path id="XMLID_15_" fill="#231F20" d="M148.9,3.1h-5.6v-3h14.8v3h-5.6v16.6h-3.6V3.1z"/>
		</g>
		<g id="XMLID_724_">
			<path id="XMLID_16_" fill="#231F20" d="M165.8,19.8v-8.2l-6.2-11.4h4.1l2.3,5c0.7,1.5,1.2,2.6,1.7,3.9h0.1c0.5-1.3,1-2.5,1.7-3.9
				l2.4-5h4l-6.5,11.4v8.3H165.8z"/>
		</g>
	</g>
	<g id="XMLID_660_">
		<g id="XMLID_721_">
			<path id="XMLID_17_" fill="#231F20" d="M1.3,35.4v-4.9H0.5V29h0.8v-0.2c0-0.8,0.2-1.6,0.8-2.1C2.6,26.1,3.3,26,3.9,26
				c0.4,0,0.8,0.1,1,0.1l-0.1,1.5c-0.2-0.1-0.4-0.1-0.6-0.1c-0.7,0-0.9,0.5-0.9,1.1V29h1.3v1.5H3.3v4.9H1.3z"/>
		</g>
		<g id="XMLID_718_">
			<path id="XMLID_18_" fill="#231F20" d="M8.5,35.5c-1.9,0-3.3-1.2-3.3-3.3c0-2.1,1.4-3.4,3.4-3.4c1.9,0,3.2,1.3,3.2,3.3
				C11.8,34.4,10.2,35.5,8.5,35.5L8.5,35.5z M8.5,34.1c0.8,0,1.3-0.8,1.3-1.9c0-0.9-0.4-1.9-1.3-1.9c-0.9,0-1.3,1-1.3,1.9
				C7.2,33.3,7.7,34.1,8.5,34.1L8.5,34.1z"/>
		</g>
		<g id="XMLID_716_">
			<path id="XMLID_19_" fill="#231F20" d="M13.2,31.1c0-0.9,0-1.6-0.1-2.1h1.7l0.1,1.2H15c0.3-0.9,1.1-1.3,1.7-1.3
				c0.2,0,0.3,0,0.4,0v1.9c-0.2,0-0.3-0.1-0.5-0.1c-0.7,0-1.2,0.4-1.4,1c0,0.1,0,0.3,0,0.4v3.2h-2V31.1z"/>
		</g>
		<g id="XMLID_714_">
			<path id="XMLID_20_" fill="#231F20" d="M23.3,27.3V29h1.4v1.5h-1.4v2.3c0,0.8,0.2,1.1,0.8,1.1c0.3,0,0.4,0,0.6-0.1l0,1.5
				c-0.2,0.1-0.7,0.2-1.3,0.2c-0.6,0-1.2-0.2-1.5-0.5c-0.4-0.4-0.5-1-0.5-1.9v-2.6h-0.8V29h0.8v-1.2L23.3,27.3z"/>
		</g>
		<g id="XMLID_712_">
			<path id="XMLID_21_" fill="#231F20" d="M26,26.1h2v3.7h0c0.2-0.3,0.5-0.5,0.8-0.7c0.3-0.2,0.7-0.2,1-0.2c1.3,0,2.2,0.9,2.2,2.8
				v3.7h-2v-3.5c0-0.8-0.3-1.4-1-1.4c-0.5,0-0.8,0.3-1,0.7C28,31.3,28,31.4,28,31.6v3.8h-2V26.1z"/>
		</g>
		<g id="XMLID_709_">
			<path id="XMLID_22_" fill="#231F20" d="M35.3,32.8c0.1,0.8,0.9,1.2,1.8,1.2c0.7,0,1.2-0.1,1.8-0.3l0.3,1.3
				c-0.7,0.3-1.4,0.4-2.3,0.4c-2.2,0-3.4-1.3-3.4-3.2c0-1.6,1-3.4,3.2-3.4c2.1,0,2.8,1.6,2.8,3.2c0,0.3,0,0.6-0.1,0.8H35.3z
				 M37.6,31.5c0-0.5-0.2-1.3-1.1-1.3c-0.8,0-1.2,0.8-1.2,1.3H37.6z"/>
		</g>
		<g id="XMLID_706_">
			<path id="XMLID_23_" fill="#231F20" d="M45.7,33.1L45,35.4H43l2.7-8.8h2.6l2.7,8.8h-2.1l-0.7-2.3H45.7z M47.9,31.6l-0.5-1.9
				c-0.1-0.5-0.3-1.2-0.4-1.7h0c-0.1,0.5-0.3,1.2-0.4,1.7l-0.5,1.9H47.9z"/>
		</g>
		<g id="XMLID_704_">
			<path id="XMLID_24_" fill="#231F20" d="M52.2,26.1h2v9.3h-2V26.1z"/>
		</g>
		<g id="XMLID_702_">
			<path id="XMLID_25_" fill="#231F20" d="M57.3,29l0.5,2.6c0.1,0.7,0.2,1.4,0.4,2.1h0c0.1-0.7,0.3-1.4,0.5-2.1l0.7-2.6h1.6l0.6,2.5
				c0.2,0.7,0.4,1.4,0.5,2.2h0c0.1-0.7,0.2-1.4,0.4-2.2l0.5-2.5h1.9l-2,6.4h-1.9l-0.6-2.2c-0.2-0.6-0.3-1.2-0.4-2h0
				c-0.1,0.8-0.2,1.4-0.4,2L59,35.4h-1.9L55.2,29H57.3z"/>
		</g>
		<g id="XMLID_699_">
			<path id="XMLID_26_" fill="#231F20" d="M71.2,33.8c0,0.6,0,1.2,0.1,1.5h-1.8l-0.1-0.6h0c-0.4,0.5-1.1,0.8-1.8,0.8
				c-1.3,0-2.1-0.9-2.1-2c0-1.7,1.5-2.4,3.7-2.4V31c0-0.3-0.2-0.8-1.2-0.8c-0.7,0-1.3,0.2-1.8,0.5l-0.4-1.3c0.4-0.2,1.3-0.6,2.5-0.6
				c2.1,0,2.8,1.3,2.8,2.8V33.8z M69.2,32.4c-1,0-1.9,0.2-1.9,1c0,0.5,0.3,0.8,0.8,0.8c0.5,0,0.9-0.3,1-0.7c0-0.1,0-0.2,0-0.3V32.4z
				"/>
		</g>
		<g id="XMLID_697_">
			<path id="XMLID_27_" fill="#231F20" d="M74.2,29l1,3.1c0.1,0.4,0.2,0.8,0.3,1.2h0c0.1-0.4,0.2-0.8,0.3-1.2l0.8-3.1h2.1l-1.5,4.2
				c-0.9,2.5-1.5,3.5-2.2,4.2c-0.7,0.6-1.4,0.8-1.9,0.9l-0.4-1.7c0.2-0.1,0.6-0.2,0.9-0.3c0.3-0.2,0.6-0.5,0.8-0.8
				c0.1-0.1,0.1-0.2,0.1-0.3c0-0.1,0-0.2-0.1-0.3L72,29H74.2z"/>
		</g>
		<g id="XMLID_695_">
			<path id="XMLID_28_" fill="#231F20" d="M79.4,33.6c0.4,0.2,1.1,0.5,1.7,0.5c0.6,0,0.8-0.2,0.8-0.5c0-0.3-0.2-0.5-0.9-0.7
				c-1.3-0.4-1.8-1.2-1.8-1.9c0-1.2,1-2.1,2.6-2.1c0.7,0,1.4,0.2,1.8,0.4l-0.3,1.4c-0.3-0.1-0.8-0.4-1.4-0.4c-0.5,0-0.8,0.2-0.8,0.5
				c0,0.3,0.2,0.5,1,0.7c1.2,0.4,1.7,1,1.7,2c0,1.2-0.9,2.1-2.8,2.1c-0.8,0-1.6-0.2-2.1-0.5L79.4,33.6z"/>
		</g>
		<g id="XMLID_693_">
			<path id="XMLID_29_" fill="#231F20" d="M88.3,31.3v1.3h-3.4v-1.3H88.3z"/>
		</g>
		<g id="XMLID_690_">
			<path id="XMLID_30_" fill="#231F20" d="M93.5,35.5c-2.6,0-4.1-2-4.1-4.5c0-2.6,1.7-4.6,4.3-4.6c2.7,0,4.2,2,4.2,4.5
				C97.9,33.8,96.1,35.5,93.5,35.5L93.5,35.5z M93.6,33.9c1.3,0,2.1-1.3,2.1-3c0-1.6-0.7-2.9-2.1-2.9c-1.4,0-2.1,1.3-2.1,3
				C91.5,32.6,92.3,33.9,93.6,33.9L93.6,33.9z"/>
		</g>
		<g id="XMLID_688_">
			<path id="XMLID_31_" fill="#231F20" d="M99.3,31c0-0.8,0-1.5-0.1-2h1.7l0.1,0.9h0c0.3-0.4,0.9-1,2-1c1.3,0,2.3,0.9,2.3,2.8v3.8
				h-2v-3.5c0-0.8-0.3-1.4-1-1.4c-0.5,0-0.9,0.4-1,0.7c-0.1,0.1-0.1,0.3-0.1,0.5v3.7h-2V31z"/>
		</g>
		<g id="XMLID_686_">
			<path id="XMLID_32_" fill="#231F20" d="M115.1,31.7h-3.2v2.1h3.6v1.6h-5.6v-8.8h5.4v1.6h-3.4V30h3.2V31.7z"/>
		</g>
		<g id="XMLID_684_">
			<path id="XMLID_33_" fill="#231F20" d="M116.9,31c0-0.8,0-1.5-0.1-2h1.7l0.1,0.9h0c0.3-0.4,0.9-1,2-1c1.3,0,2.3,0.9,2.3,2.8v3.8
				h-2v-3.5c0-0.8-0.3-1.4-1-1.4c-0.5,0-0.9,0.4-1,0.7c-0.1,0.1-0.1,0.3-0.1,0.5v3.7h-2V31z"/>
		</g>
		<g id="XMLID_682_">
			<path id="XMLID_34_" fill="#231F20" d="M126.9,27.3V29h1.4v1.5h-1.4v2.3c0,0.8,0.2,1.1,0.8,1.1c0.3,0,0.4,0,0.6-0.1l0,1.5
				c-0.2,0.1-0.7,0.2-1.3,0.2c-0.6,0-1.2-0.2-1.5-0.5c-0.4-0.4-0.5-1-0.5-1.9v-2.6h-0.8V29h0.8v-1.2L126.9,27.3z"/>
		</g>
		<g id="XMLID_679_">
			<path id="XMLID_35_" fill="#231F20" d="M131,32.8c0.1,0.8,0.9,1.2,1.8,1.2c0.7,0,1.2-0.1,1.8-0.3l0.3,1.3
				c-0.7,0.3-1.4,0.4-2.3,0.4c-2.2,0-3.4-1.3-3.4-3.2c0-1.6,1-3.4,3.2-3.4c2.1,0,2.8,1.6,2.8,3.2c0,0.3,0,0.6-0.1,0.8H131z
				 M133.4,31.5c0-0.5-0.2-1.3-1.1-1.3c-0.8,0-1.2,0.8-1.2,1.3H133.4z"/>
		</g>
		<g id="XMLID_677_">
			<path id="XMLID_36_" fill="#231F20" d="M136.5,31.1c0-0.9,0-1.6-0.1-2.1h1.7l0.1,1.2h0.1c0.3-0.9,1.1-1.3,1.7-1.3
				c0.2,0,0.3,0,0.4,0v1.9c-0.2,0-0.3-0.1-0.5-0.1c-0.7,0-1.2,0.4-1.4,1c0,0.1,0,0.3,0,0.4v3.2h-2V31.1z"/>
		</g>
		<g id="XMLID_674_">
			<path id="XMLID_37_" fill="#231F20" d="M141.6,31.1c0-0.8,0-1.5-0.1-2.1h1.7l0.1,0.9h0c0.5-0.7,1.2-1,2.1-1
				c1.4,0,2.6,1.2,2.6,3.2c0,2.3-1.5,3.4-2.9,3.4c-0.8,0-1.4-0.3-1.7-0.7h0V38h-2V31.1z M143.6,32.6c0,0.2,0,0.3,0,0.4
				c0.1,0.5,0.6,0.9,1.2,0.9c0.9,0,1.4-0.7,1.4-1.8c0-1-0.5-1.8-1.3-1.8c-0.6,0-1.1,0.4-1.2,1c0,0.1,0,0.2,0,0.4V32.6z"/>
		</g>
		<g id="XMLID_672_">
			<path id="XMLID_38_" fill="#231F20" d="M149.5,31.1c0-0.9,0-1.6-0.1-2.1h1.7l0.1,1.2h0.1c0.3-0.9,1.1-1.3,1.7-1.3
				c0.2,0,0.3,0,0.4,0v1.9c-0.2,0-0.3-0.1-0.5-0.1c-0.7,0-1.2,0.4-1.4,1c0,0.1,0,0.3,0,0.4v3.2h-2V31.1z"/>
		</g>
		<g id="XMLID_669_">
			<path id="XMLID_39_" fill="#231F20" d="M155.6,28.2c-0.6,0-1-0.4-1-1c0-0.6,0.4-1,1.1-1c0.6,0,1,0.4,1,1
				C156.7,27.8,156.3,28.2,155.6,28.2L155.6,28.2z M154.6,35.4V29h2v6.4H154.6z"/>
		</g>
		<g id="XMLID_667_">
			<path id="XMLID_40_" fill="#231F20" d="M158.3,33.6c0.4,0.2,1.1,0.5,1.7,0.5c0.6,0,0.8-0.2,0.8-0.5c0-0.3-0.2-0.5-0.9-0.7
				c-1.3-0.4-1.8-1.2-1.8-1.9c0-1.2,1-2.1,2.6-2.1c0.7,0,1.4,0.2,1.8,0.4l-0.3,1.4c-0.3-0.1-0.8-0.4-1.4-0.4c-0.5,0-0.8,0.2-0.8,0.5
				c0,0.3,0.2,0.5,1,0.7c1.2,0.4,1.7,1,1.7,2c0,1.2-0.9,2.1-2.8,2.1c-0.8,0-1.6-0.2-2.1-0.5L158.3,33.6z"/>
		</g>
		<g id="XMLID_664_">
			<path id="XMLID_41_" fill="#231F20" d="M165.7,32.8c0.1,0.8,0.9,1.2,1.8,1.2c0.7,0,1.2-0.1,1.8-0.3l0.3,1.3
				c-0.7,0.3-1.4,0.4-2.3,0.4c-2.2,0-3.4-1.3-3.4-3.2c0-1.6,1-3.4,3.2-3.4c2.1,0,2.8,1.6,2.8,3.2c0,0.3,0,0.6-0.1,0.8H165.7z
				 M168,31.5c0-0.5-0.2-1.3-1.1-1.3c-0.8,0-1.2,0.8-1.2,1.3H168z"/>
		</g>
		<g id="XMLID_661_">
			<path id="XMLID_42_" fill="#231F20" d="M172.3,26.6v0.3h-0.7v1.7h-0.4v-1.7h-0.7v-0.3H172.3z M174.6,28.6l-0.1-1.2
				c0-0.2,0-0.3,0-0.6h0c-0.1,0.2-0.1,0.4-0.2,0.6l-0.4,1.1h-0.4l-0.4-1.2c0-0.2-0.1-0.4-0.2-0.6h0c0,0.2,0,0.4,0,0.6l-0.1,1.2h-0.4
				l0.2-2.1h0.6l0.3,1c0.1,0.2,0.1,0.3,0.1,0.5h0c0-0.2,0.1-0.4,0.1-0.5l0.4-1h0.6l0.2,2.1H174.6z"/>
		</g>
	</g>
</g>
</svg>
