<?xml version="1.0" encoding="utf-8"?>
<!-- Generator: Adobe Illustrator 19.2.0, SVG Export Plug-In . SVG Version: 6.00 Build 0)  -->
<svg version="1.1" id="Layer_1" xmlns="http://www.w3.org/2000/svg" xmlns:xlink="http://www.w3.org/1999/xlink" x="0px" y="0px"
	 viewBox="0 0 134.9 35.2" enable-background="new 0 0 134.9 35.2" xml:space="preserve">
<g>
	<g id="XMLID_658_">
		<path id="XMLID_4_" fill="#231F20" d="M134.9,7.4c0-4.1-3.3-7.4-7.3-7.4h-25.2v23.4h5.4V4.1h7.9v19.3h5.4V4.1h4.5
			c2.5,0,3.8,1.7,3.8,3.8v15.5h5.4C134.9,23.4,134.9,8.2,134.9,7.4"/>
	</g>
	<g id="XMLID_655_">
		<path id="XMLID_43_" fill="#231F20" d="M84.8,19.1L84.8,19.1c-1.6-0.1-3-1.4-3-2.9c0-1.5,1.3-2.8,2.9-2.9h8.8v5.8H84.8L84.8,19.1z
			 M92,0c-0.1,0-11,0-14.3,0v4.1h11.9c2.7,0,3.9,2,3.9,5h-10c-4,0-7.2,3.1-7.2,7.1c0,3.9,3.2,7.3,7.2,7.3h15.4c0,0,0-15.3,0-16.1
			C98.9,3.1,96,0.1,92,0"/>
	</g>
	<g id="XMLID_654_">
		<path id="XMLID_44_" fill="#231F20" d="M43.1,4.1h8.6V0H41.1c-4.4,0-8.9,3.2-8.9,11.7c0,7.6,4.5,11.7,8.8,11.7h10.8v-4.1h-9.5
			c-2.6,0-4.6-2.9-4.6-5.6h14.1V9.5H37.6C37.6,6.1,39.6,4.1,43.1,4.1"/>
	</g>
	<g id="XMLID_653_">
		<path id="XMLID_45_" fill="#231F20" d="M65.3,4.1h8.6V0H63.2c-4.4,0-8.9,3.2-8.9,11.7c0,7.6,4.5,11.7,8.8,11.7h10.8v-4.1h-9.5
			c-2.6,0-4.6-2.9-4.6-5.6h14.1V9.5H59.8C59.8,6.1,61.7,4.1,65.3,4.1"/>
	</g>
	<g id="XMLID_652_">
		<polygon id="XMLID_46_" fill="#231F20" points="7.5,0 17.4,23.4 22.4,23.4 33.1,0 27.2,0 19.9,16.6 13.4,0 7.5,0 		"/>
	</g>
	<g id="XMLID_651_">
		<path id="XMLID_47_" fill="#54B848" d="M0,0l0,15.4c0,0,0,1.4,0,1.4l0,6.4c0,3.2,1.2,6.2,3.4,8.4c2.2,2.2,5.2,3.5,8.4,3.5l123,0
			v-7.3l-122.1,0c-2.6,0-5.1-1-7-2.9C4,23.1,3,20.6,3,18c0,0,0-1.2,0-1.2l0-1.4L3,0H0L0,0z"/>
	</g>
</g>
</svg>
